<?xml version="1.0" encoding="UTF-8"?>
<svg version="1.1" xmlns="http://www.w3.org/2000/svg" width="100" height="100">
<path d="M0 0 C0.94746094 -0.020625 1.89492188 -0.04125 2.87109375 -0.0625 C14.53151736 -0.12630533 23.73779478 3.15059204 32.3515625 11.06640625 C38.27375897 17.30361317 40.68767234 24.25424914 42.625 32.5 C44.01434593 38.02598608 46.59286681 42.48287227 49.68261719 47.21582031 C52.277524 51.36331816 53.09092223 54.38987753 52.375 59.25 C50.6953125 61.02734375 50.6953125 61.02734375 48.5 62.1875 C47.78070313 62.58839844 47.06140625 62.98929688 46.3203125 63.40234375 C44.375 64.25 44.375 64.25 42.375 64.25 C42.42140625 65.25160156 42.4678125 66.25320312 42.515625 67.28515625 C42.96699509 80.95154413 42.96699509 80.95154413 38.375 86.25 C32.6033054 90.84379775 27.57180113 90.71850785 20.375 90.25 C20.375 92.23 20.375 94.21 20.375 96.25 C19.055 96.25 17.735 96.25 16.375 96.25 C16.375 92.62 16.375 88.99 16.375 85.25 C17.32761719 85.22421875 18.28023437 85.1984375 19.26171875 85.171875 C20.51597656 85.11515625 21.77023438 85.0584375 23.0625 85 C24.30386719 84.95359375 25.54523438 84.9071875 26.82421875 84.859375 C30.8433635 84.16962078 32.52852273 83.11744579 35.375 80.25 C36.908337 76.64665805 37.36270138 73.9703475 37.4296875 70.046875 C37.49840258 66.64166084 37.59636331 63.56921697 38.375 60.25 C40.78849402 57.98510752 43.18372054 57.02782893 46.375 56.25 C45.08828706 51.90334285 43.39329583 48.4847413 40.9375 44.6875 C38.31229237 40.32835893 36.79053893 36.61535528 35.8125 31.625 C34.21094782 23.56899957 31.04124244 17.10103922 24.625 11.8125 C13.72099343 4.63131657 -0.50010257 4.59376862 -13.046875 6.87109375 C-20.75169199 9.31965847 -27.18866292 14.03595286 -31.2578125 21.07421875 C-35.95037022 31.11629227 -37.46514567 42.16887835 -34.9765625 53.09765625 C-34.00391416 55.58746973 -32.87830802 57.88827507 -31.625 60.25 C-31.02556445 61.45159272 -30.4294618 62.65485146 -29.8359375 63.859375 C-28.61423592 66.33269866 -27.37189343 68.79085672 -26.11328125 71.24609375 C-24.28052922 74.94527042 -23.4999802 77.6220497 -23.52734375 81.69921875 C-23.53056641 82.54677734 -23.53378906 83.39433594 -23.53710938 84.26757812 C-23.54548828 85.14865234 -23.55386719 86.02972656 -23.5625 86.9375 C-23.56701172 87.83017578 -23.57152344 88.72285156 -23.57617188 89.64257812 C-23.58795017 91.84511987 -23.60439836 94.04752599 -23.625 96.25 C-24.945 96.25 -26.265 96.25 -27.625 96.25 C-27.66874756 95.70287354 -27.71249512 95.15574707 -27.75756836 94.59204102 C-28.85374176 82.22684355 -31.13062659 72.57479611 -37.56640625 61.9140625 C-43.33753432 52.10416984 -43.13014844 38.76719022 -40.9375 27.81640625 C-40.02340904 25.13126407 -38.97586147 22.74196184 -37.625 20.25 C-37.18929687 19.44304688 -36.75359375 18.63609375 -36.3046875 17.8046875 C-30.92658674 8.8999633 -22.70565314 3.61630727 -12.79833984 0.71508789 C-8.59173591 -0.18511212 -4.28558095 0.02276537 0 0 Z " fill="#000000" transform="translate(45.625,1.75)"/>
<path d="M0 0 C1.32 0 2.64 0 4 0 C4.38555452 6.71828758 2.93592405 12.89822428 1.5 19.4375 C1.26152344 20.55060547 1.02304687 21.66371094 0.77734375 22.81054688 C0.19123786 25.54180031 -0.40137252 28.27146868 -1 31 C-2.65 31.33 -4.3 31.66 -6 32 C-6.37381238 25.30971686 -4.97251167 19.14290517 -3.5625 12.625 C-3.21735352 10.96791016 -3.21735352 10.96791016 -2.86523438 9.27734375 C-1.13831967 1.13831967 -1.13831967 1.13831967 0 0 Z " fill="#000000" transform="translate(48,28)"/>
<path d="M0 0 C2.97835476 0 4.59174941 0.6073455 6.73828125 2.671875 C8.41028533 4.71671677 9.80064541 6.64604285 11 9 C10.6875 11.625 10.6875 11.625 9 14 C8.62746094 14.54011719 8.25492188 15.08023438 7.87109375 15.63671875 C6.625 17.3125 6.625 17.3125 4 20 C2.68 20 1.36 20 0 20 C0.75 14.25 0.75 14.25 3 12 C2.64700993 8.55834679 1.95418308 6.93127462 0 4 C0 2.68 0 1.36 0 0 Z " fill="#000000" transform="translate(59,34)"/>
<path d="M0 0 C1.32 0 2.64 0 4 0 C3.25 5.75 3.25 5.75 1 8 C1.35299007 11.44165321 2.04581692 13.06872538 4 16 C4 17.32 4 18.64 4 20 C1.02164524 20 -0.59174941 19.3926545 -2.73828125 17.328125 C-4.41028533 15.28328323 -5.80064541 13.35395715 -7 11 C-6.6875 8.375 -6.6875 8.375 -5 6 C-4.62746094 5.45988281 -4.25492188 4.91976562 -3.87109375 4.36328125 C-2.625 2.6875 -2.625 2.6875 0 0 Z " fill="#000000" transform="translate(31,34)"/>
</svg>
